<svg id="图层_1" data-name="图层 1" xmlns="http://www.w3.org/2000/svg" viewBox="0 0 1483.64 405.65"><title>logo_full</title><path d="M568,295.5q-9.87,0-19.42-.64T530.45,293q-8.6-1.27-15.59-2.55a86.11,86.11,0,0,1-11.78-2.86V250.3a90.9,90.9,0,0,0,12.41,3.5q7.32,1.6,15.76,2.87t17.5,2.07q9.07.79,18,.79,22.9,0,32.78-6.52t9.87-23.4a41,41,0,0,0-1.76-12.89,20.32,20.32,0,0,0-6.52-9.23,43.79,43.79,0,0,0-13.21-7q-8.43-3-22.12-6.52a196.63,196.63,0,0,1-29.12-8.92,56.61,56.61,0,0,1-18.78-11.93,40.3,40.3,0,0,1-10.18-17.19q-3-10-3-24.66,0-33.74,19.89-48.54T583,67.93a208.85,208.85,0,0,1,32.78,2.39q15,2.39,23.55,5.57v35.32a97.71,97.71,0,0,0-10.82-3q-6.37-1.43-13.84-2.7t-15.44-1.91q-8-.64-15-.64-20.06,0-29.44,5.41t-9.39,22A37.58,37.58,0,0,0,546.69,141a15.14,15.14,0,0,0,5.56,7.64,45.07,45.07,0,0,0,12.26,6.21,212.64,212.64,0,0,0,21,6.05,209.16,209.16,0,0,1,32,10.18q12.57,5.41,19.89,13.37a45.24,45.24,0,0,1,10.35,19.09q3,11.15,3,26.74,0,32.46-19.73,48.86T568,295.5Z" transform="translate(-0.35 -0.37)" style="fill:#fff"/><path d="M787.3,117.26q16.23,0,27.21,3.82a42.08,42.08,0,0,1,17.66,11.14,42.54,42.54,0,0,1,9.55,18,94.16,94.16,0,0,1,2.87,24.35V292.31H804.8V185.69q0-18.13-5.73-26.73t-23.87-8.6q-15.27,0-25.94,5.57t-16.07,21.8V292.31H693.41V120.45h39.78v21.64A41.43,41.43,0,0,1,755,123,87.15,87.15,0,0,1,787.3,117.26Z" transform="translate(-0.35 -0.37)" style="fill:#fff"/><path d="M1027,233.75h-92.3l-21,58.56h-43L953.43,71.43h56l82.11,220.88h-44.24Zm-12.42-35L983,108.67h-3.82l-32.14,90.07Z" transform="translate(-0.35 -0.37)" style="fill:#fff"/><path d="M1211.23,117.26q21,0,34.54,6.37a51.47,51.47,0,0,1,21.32,18q7.8,11.63,10.66,28.17a215.22,215.22,0,0,1,2.87,36.6,197.62,197.62,0,0,1-2.87,34.37,77.59,77.59,0,0,1-10.66,28.49,54.28,54.28,0,0,1-21.32,19.25q-13.55,7-34.54,7-24.51,0-36.6-8a43.45,43.45,0,0,1-17.19-21.33l-3.18,26.1h-36V50.42h39.78v94.21q5.42-11.46,17.51-19.41T1211.23,117.26Zm-10.82,147.36q13,0,20.85-4.77A30.88,30.88,0,0,0,1233,247.12a56.39,56.39,0,0,0,5.26-18.62,188.42,188.42,0,0,0,1.27-22.12,197.26,197.26,0,0,0-1.27-23.08,54.13,54.13,0,0,0-5.41-18.61,30,30,0,0,0-11.94-12.42q-7.8-4.46-20.53-4.45-13,0-21.64,4a33,33,0,0,0-13.69,11.46,48.47,48.47,0,0,0-7.16,18.46,133.85,133.85,0,0,0-2.07,24.67,126.73,126.73,0,0,0,2.07,24,49.75,49.75,0,0,0,7.16,18.3,33.64,33.64,0,0,0,13.69,11.78Q1187.37,264.63,1200.41,264.62Z" transform="translate(-0.35 -0.37)" style="fill:#fff"/><path d="M1414.61,117.26q21,0,34.53,6.37a51.41,51.41,0,0,1,21.32,18q7.8,11.63,10.67,28.17a215.28,215.28,0,0,1,2.86,36.6,197.65,197.65,0,0,1-2.86,34.37,77.6,77.6,0,0,1-10.67,28.49,54.21,54.21,0,0,1-21.32,19.25q-13.53,7-34.53,7-23.88,0-35.81-7.48a43.39,43.39,0,0,1-17.34-20.21V356h-39.79V120.45h39.79v24.18q5.4-11.46,17.5-19.41T1414.61,117.26Zm-10.82,147.36q13,0,20.84-4.77a31,31,0,0,0,11.78-12.73,56.39,56.39,0,0,0,5.25-18.62,186.28,186.28,0,0,0,1.27-22.12,195.11,195.11,0,0,0-1.27-23.08,54.13,54.13,0,0,0-5.41-18.61,30,30,0,0,0-11.94-12.42q-7.8-4.46-20.52-4.45-13.07,0-21.65,4a33,33,0,0,0-13.68,11.46,48.15,48.15,0,0,0-7.16,18.46,133,133,0,0,0-2.07,24.67,125.92,125.92,0,0,0,2.07,24,49.41,49.41,0,0,0,7.16,18.3,33.61,33.61,0,0,0,13.68,11.78Q1390.73,264.63,1403.79,264.62Z" transform="translate(-0.35 -0.37)" style="fill:#fff"/><path d="M203.18,57.56A143.29,143.29,0,0,0,93.31,108.63V61.75h0V32.66A203.75,203.75,0,0,0,59.54,60V205.42h0a143.1,143.1,0,0,0,33.74,88.34V201.2a109.79,109.79,0,1,1,76.09,104.55v35.11a143.67,143.67,0,1,0,33.81-283.3Z" transform="translate(-0.35 -0.37)" style="fill:#fff"/><path d="M406,203.2C406,91.18,315.19.37,203.18.37a202,202,0,0,0-88.74,20.4V64.31A164.84,164.84,0,0,1,367.92,199H368V321.4A201.82,201.82,0,0,0,406,203.2Z" transform="translate(-0.35 -0.37)" style="fill:#fff"/><g id="Layer_2-2" data-name="Layer 2-2"><g id="Layer_3" data-name="Layer 3"><path d="M203.18,368A164.8,164.8,0,0,1,38.57,211.05h-.19V85A201.87,201.87,0,0,0,.35,203.2C.35,315.21,91.16,406,203.18,406a202.16,202.16,0,0,0,143.66-59.66V284A164.73,164.73,0,0,1,203.18,368Z" transform="translate(-0.35 -0.37)" style="fill:#fff"/></g></g><g id="Layer_7" data-name="Layer 7"><path d="M169.37,282.27a88.74,88.74,0,1,0,33.81-170.79v0a88.72,88.72,0,0,0-88.74,88.72v114" transform="translate(-0.35 -0.37)" style="fill:none;stroke:#fff;stroke-miterlimit:10;stroke-width:10px"/></g><path d="M232.72,155.21a27,27,0,0,0-27,27h0V249.6h13.49V182.18h0a13.49,13.49,0,1,1,27,0V249.6h13.48V182.18A27,27,0,0,0,232.72,155.21Z" transform="translate(-0.35 -0.37)" style="fill:#3367d5"/><path d="M168.67,155.21a27,27,0,0,0-.08,53.93h0a13.49,13.49,0,0,1,0,27v0H142v13.48h26.63v0a27,27,0,0,0,0-53.94h0a13.49,13.49,0,0,1,0-27h27V155.21Z" transform="translate(-0.35 -0.37)" style="fill:#3367d5"/></svg>