<?xml version="1.0" encoding="utf-8"?>
<!-- Generator: Adobe Illustrator 23.0.1, SVG Export Plug-In . SVG Version: 6.00 Build 0)  -->
<svg version="1.1" id="图层_1" xmlns="http://www.w3.org/2000/svg" xmlns:xlink="http://www.w3.org/1999/xlink" x="0px" y="0px"
	 viewBox="0 0 405.6 405.6" style="enable-background:new 0 0 405.6 405.6;" xml:space="preserve">
<style type="text/css">
	.st0{fill:#FFFFFF;}
	.st1{fill:none;stroke:#FFFFFF;stroke-width:10;stroke-miterlimit:10;}
	.st2{fill:#3367D5;}
</style>
<title>logo_full</title>
<path class="st0" d="M202.8,57.2c-42.4-0.1-82.6,18.6-109.9,51.1V61.4l0,0V32.3c-12.2,7.9-23.5,17-33.8,27.3v145.4l0,0
	c0.9,32.4,12.8,63.6,33.7,88.3v-92.6c0-60.6,49.2-109.8,109.9-109.7S312.5,140.3,312.5,201c0,60.6-49.2,109.8-109.8,109.7
	c-11.4,0-22.8-1.8-33.6-5.3v35.1c77.1,18.7,154.8-28.7,173.5-105.8c18.7-77.1-28.7-154.8-105.8-173.5
	C225.6,58.5,214.2,57.2,202.8,57.2z"/>
<path class="st0" d="M405.6,202.8C405.6,90.8,314.8,0,202.8,0c-30.7,0-61.1,6.9-88.7,20.4v43.5c76.7-49,178.7-26.5,227.6,50.2
	c16.1,25.3,25.1,54.5,25.8,84.4h0.1V321C392.4,286.6,405.7,245.2,405.6,202.8z"/>
<g id="Layer_2-2">
	<g id="Layer_3">
		<path class="st0" d="M202.8,367.6c-88,0-160.4-69.1-164.6-156.9H38V84.6C13.3,119.1-0.1,160.4,0,202.8
			c0,112,90.8,202.8,202.8,202.8c53.9,0.1,105.6-21.4,143.7-59.7v-62.3C317.3,335.5,262.4,367.7,202.8,367.6z"/>
	</g>
</g>
<g id="Layer_7">
	<path class="st1" d="M169,281.9c45.3,18.7,97.2-2.9,115.9-48.2c18.7-45.3-2.9-97.2-48.2-115.9c-10.7-4.4-22.2-6.7-33.8-6.7l0,0
		c-49,0-88.7,39.7-88.7,88.7c0,0,0,0,0,0v114"/>
</g>
<path class="st2" d="M232.4,154.8c-14.9,0-27,12.1-27,27l0,0v67.4h13.5v-67.4l0,0c0-7.5,6-13.5,13.5-13.5s13.5,6,13.5,13.5v67.4
	h13.5v-67.4C259.3,166.9,247.3,154.9,232.4,154.8z"/>
<path class="st2" d="M168.3,154.8c-14.9,0.7-26.4,13.4-25.6,28.3c0.7,13.8,11.7,24.9,25.6,25.6l0,0c7.5,0,13.5,6,13.5,13.5
	s-6,13.5-13.5,13.5l0,0h-26.6v13.5h26.6l0,0c14.9-0.7,26.4-13.3,25.7-28.2c-0.7-13.9-11.8-25-25.7-25.7l0,0c-7.5,0-13.5-6-13.5-13.5
	s6-13.5,13.5-13.5h27v-13.5H168.3z"/>
</svg>
